name rise32.9588peak41.5061fall63.4684.mot
datacolumns 19
datarows 20
range 1.35333000000000 1.38499800000000
endheader
time	ground_force1_vx	ground_force1_vy	ground_force1_vz	ground_force1_px	ground_force1_py	ground_force1_pz	ground_force2_vx	ground_force2_vy	ground_force2_vz	ground_force2_px	ground_force2_py	ground_force2_pz	ground_torque1_x	ground_torque1_y	ground_torque1_z	ground_torque2_x	ground_torque2_y	ground_torque2_z	
1.35333000000000	-10.50108400000000	40.38356400000000	-11.32390800000000	0.28127600000000	0.00000000000000	0.07566000000000	-42.41198900000000	779.66012899999998	-47.80266200000000	0.11196500000000	0.00000000000000	-0.08107400000000	0.00000000000000	-6.85379600000000	0.00000000000000	0.00000000000000	-15.38245800000000	0.00000000000000	
1.35499700000000	-11.53828300000000	47.42409400000000	-12.72147200000000	0.28611600000000	0.00000000000000	0.07716800000000	-42.76619200000000	776.62239000000000	-47.40890200000000	0.11134200000000	0.00000000000000	-0.08100600000000	0.00000000000000	-7.77294400000000	0.00000000000000	0.00000000000000	-15.31026900000000	0.00000000000000	
1.35666600000000	-12.38502500000000	54.58189800000000	-13.98818500000000	0.29056200000000	0.00000000000000	0.07852100000000	-43.15319800000000	773.49482799999998	-47.00020000000000	0.11071800000000	0.00000000000000	-0.08093500000000	0.00000000000000	-8.62784900000000	0.00000000000000	0.00000000000000	-15.24339000000000	0.00000000000000	
1.35832900000000	-13.01377200000000	61.76868800000000	-15.09457700000000	0.29467600000000	0.00000000000000	0.07974400000000	-43.57301600000000	770.27526000000000	-46.57653000000000	0.11009100000000	0.00000000000000	-0.08086000000000	0.00000000000000	-9.39940600000000	0.00000000000000	0.00000000000000	-15.18184500000000	0.00000000000000	
1.35999500000000	-13.40854200000000	68.91775600000000	-16.02141500000000	0.29850700000000	0.00000000000000	0.08085500000000	-44.02548900000000	766.96132599999999	-46.13786500000000	0.10946300000000	0.00000000000000	-0.08078200000000	0.00000000000000	-10.07448700000000	0.00000000000000	0.00000000000000	-15.12562900000000	0.00000000000000	
1.36166200000000	-13.56473000000000	75.98610700000000	-16.75980200000000	0.30209400000000	0.00000000000000	0.08187100000000	-44.51029500000000	763.55048899999997	-45.68417900000000	0.10883500000000	0.00000000000000	-0.08070000000000	0.00000000000000	-10.64614600000000	0.00000000000000	0.00000000000000	-15.07470300000000	0.00000000000000	
1.36333100000000	-13.48800800000000	82.95428699999999	-17.31041900000000	0.30547100000000	0.00000000000000	0.08280300000000	-45.02694000000000	760.04004499999996	-45.21544700000000	0.10820800000000	0.00000000000000	-0.08061400000000	0.00000000000000	-11.11327700000000	0.00000000000000	0.00000000000000	-15.02899800000000	0.00000000000000	
1.36499600000000	-13.19259000000000	89.82428299999999	-17.68210600000000	0.30866300000000	0.00000000000000	0.08366200000000	-45.57475900000000	756.42713800000001	-44.73164700000000	0.10758100000000	0.00000000000000	-0.08052500000000	0.00000000000000	-11.47985500000000	0.00000000000000	0.00000000000000	-14.98841300000000	0.00000000000000	
1.36666200000000	-12.69907400000000	96.61601899999999	-17.89002300000000	0.31169200000000	0.00000000000000	0.08445700000000	-46.15291700000000	752.70876399999997	-44.23276200000000	0.10695600000000	0.00000000000000	-0.08043100000000	0.00000000000000	-11.75388500000000	0.00000000000000	0.00000000000000	-14.95281200000000	0.00000000000000	
1.36832700000000	-12.03214500000000	103.36297900000000	-17.95360600000000	0.31457500000000	0.00000000000000	0.08519600000000	-46.76040100000000	748.88179100000002	-43.71878100000000	0.10633500000000	0.00000000000000	-0.08033400000000	0.00000000000000	-11.94620100000000	0.00000000000000	0.00000000000000	-14.92203200000000	0.00000000000000	
1.37000000000000	-11.21833200000000	110.10746100000000	-17.89453200000000	0.31732800000000	0.00000000000000	0.08588400000000	-47.39602900000000	744.94296599999996	-43.18970200000000	0.10571700000000	0.00000000000000	-0.08023200000000	0.00000000000000	-12.06923400000000	0.00000000000000	0.00000000000000	-14.89587400000000	0.00000000000000	
1.37166200000000	-10.28400100000000	116.89592700000000	-17.73485400000000	0.31996400000000	0.00000000000000	0.08652700000000	-48.05844800000000	740.88893499999995	-42.64553000000000	0.10510300000000	0.00000000000000	-0.08012700000000	0.00000000000000	-12.13586500000000	0.00000000000000	0.00000000000000	-14.87411000000000	0.00000000000000	
1.37332900000000	-9.25369800000000	123.77479300000000	-17.49541800000000	0.32249100000000	0.00000000000000	0.08713000000000	-48.74613400000000	736.71625800000004	-42.08628600000000	0.10449400000000	0.00000000000000	-0.08001800000000	0.00000000000000	-12.15843100000000	0.00000000000000	0.00000000000000	-14.85648100000000	0.00000000000000	
1.37500300000000	-8.14892000000000	130.78691699999999	-17.19464800000000	0.32492100000000	0.00000000000000	0.08769600000000	-49.45739900000000	732.42142600000000	-41.51200200000000	0.10389200000000	0.00000000000000	-0.07990400000000	0.00000000000000	-12.14793600000000	0.00000000000000	0.00000000000000	-14.84269700000000	0.00000000000000	
1.37666600000000	-6.98732100000000	137.96893200000000	-16.84773000000000	0.32725900000000	0.00000000000000	0.08822900000000	-50.19039000000000	728.00088100000005	-40.92272800000000	0.10329700000000	0.00000000000000	-0.07978700000000	0.00000000000000	-12.11351000000000	0.00000000000000	0.00000000000000	-14.83244300000000	0.00000000000000	
1.37833000000000	-5.78235300000000	145.34948000000000	-16.46617600000000	0.32951200000000	0.00000000000000	0.08873200000000	-50.94309700000000	723.45103600000004	-40.31853200000000	0.10270900000000	0.00000000000000	-0.07966500000000	0.00000000000000	-12.06208700000000	0.00000000000000	0.00000000000000	-14.82537000000000	0.00000000000000	
1.37999100000000	-4.54327700000000	152.94831400000001	-16.05773900000000	0.33168500000000	0.00000000000000	0.08920800000000	-51.71335700000000	718.76829499999997	-39.69950000000000	0.10213000000000	0.00000000000000	-0.07953900000000	0.00000000000000	-11.99831800000000	0.00000000000000	0.00000000000000	-14.82110700000000	0.00000000000000	
1.38165800000000	-3.27548700000000	160.77619100000001	-15.62663100000000	0.33378300000000	0.00000000000000	0.08965800000000	-52.49886100000000	713.94907799999999	-39.06574300000000	0.10156000000000	0.00000000000000	-0.07940900000000	0.00000000000000	-11.92465800000000	0.00000000000000	0.00000000000000	-14.81925700000000	0.00000000000000	
1.38333200000000	-1.98105500000000	168.83539500000001	-15.17395900000000	0.33580900000000	0.00000000000000	0.09008600000000	-53.29715800000000	708.98984399999995	-38.41739600000000	0.10100100000000	0.00000000000000	-0.07927400000000	0.00000000000000	-11.84161500000000	0.00000000000000	0.00000000000000	-14.81939700000000	0.00000000000000	
1.38499800000000	-0.65943300000000	177.12076300000001	-14.69830800000000	0.33776500000000	0.00000000000000	0.09049200000000	-54.10566600000000	703.88711200000000	-37.75461800000000	0.10045200000000	0.00000000000000	-0.07913600000000	0.00000000000000	-11.74808600000000	0.00000000000000	0.00000000000000	-14.82108400000000	0.00000000000000	
